# xmcd
# 
# Track frame offsets:
#     150
#     27808
#     46880
#     74613
# 
# Disc length: 1246
# 
# Revision: 1
# Processed by: cddbd v1.5.2PL0 Copyright (c) Steve Scherf et al.
# Submitted via: BonkEnc v1.0.5
# 
DISCID=2f04dc04
DTITLE=福山　雅治 - 東京
DYEAR=2005
DGENRE=JPop
TTITLE0=東京
TTITLE1=私は風になる
TTITLE2=東京 (ORIGINAL KARAOKE)
TTITLE3=私は風になる (ORIGINAL KARAOKE)
EXTD=
EXTT0=
EXTT1=
EXTT2=
EXTT3=
PLAYORDER=
